<svg width="49" height="53" viewBox="0 0 49 53" fill="none" xmlns="http://www.w3.org/2000/svg">
<path d="M33.3316 4.44184C31.0891 2.02076 27.9571 0.6875 24.5 0.6875C21.0246 0.6875 17.8821 2.0127 15.65 4.41879C13.3938 6.85139 12.2944 10.1575 12.5525 13.7274C13.0642 20.7705 18.4237 26.5 24.5 26.5C30.5764 26.5 35.9267 20.7717 36.4464 13.7297C36.708 10.192 35.6017 6.89287 33.3316 4.44184ZM44.7813 52.3125H4.2188C3.68787 52.3194 3.16208 52.2079 2.67969 51.986C2.19729 51.7641 1.77042 51.4375 1.43013 51.0299C0.681103 50.1346 0.379189 48.9119 0.602744 47.6755C1.57532 42.2802 4.6106 37.748 9.3813 34.5664C13.6196 31.742 18.9884 30.1875 24.5 30.1875C30.0117 30.1875 35.3805 31.7432 39.6188 34.5664C44.3895 37.7469 47.4248 42.279 48.3974 47.6743C48.6209 48.9108 48.319 50.1334 47.57 51.0288C47.2298 51.4366 46.803 51.7634 46.3206 51.9855C45.8382 52.2076 45.3123 52.3193 44.7813 52.3125Z" fill="#C2C2C2"/>
</svg>
